<svg xmlns="http://www.w3.org/2000/svg" width="40" height="40" viewBox="0 0 40 40" fill="none"><g clip-path="url(#clip0_332_2437)"><path d="M37.6562 19.1595V14.4436C37.6562 12.1268 35.8127 10.2334 33.5156 10.1507V7.25614C33.5156 5.7484 32.289 4.52176 30.7812 4.52176H23.2533L22.2812 1.81965C22.0333 1.13059 21.5316 0.579965 20.8684 0.269261C20.2053 -0.0415198 19.4611 -0.0746448 18.773 0.175824L5.1125 5.14778C4.42516 5.39793 3.8768 5.90098 3.56836 6.56426C3.25992 7.22754 3.22859 7.97106 3.48023 8.65793L4.02906 10.156C1.78414 10.2948 0 12.1643 0 14.4436V35.6936C0 38.0629 1.92758 39.9905 4.29688 39.9905H33.3594C35.7287 39.9905 37.6562 38.0629 37.6562 35.6936V30.8215C38.9795 30.6314 40 29.4906 40 28.1155V21.8655C40 20.4904 38.9795 19.3497 37.6562 19.1595ZM37.6562 28.1155C37.6562 28.3309 37.481 28.5061 37.2656 28.5061H31.0156C29.0771 28.5061 27.5 26.929 27.5 24.9905C27.5 23.052 29.0771 21.4749 31.0156 21.4749H37.2656C37.481 21.4749 37.6562 21.6501 37.6562 21.8655V28.1155ZM5.68094 7.85168C5.63242 7.71926 5.66797 7.60746 5.69352 7.55254C5.71906 7.4977 5.78164 7.3984 5.91414 7.3502L19.5746 2.37825C19.7073 2.33004 19.8191 2.3659 19.874 2.39161C19.9289 2.41731 20.028 2.48028 20.0758 2.61309L20.7625 4.52184H20.2344C18.7266 4.52184 17.5 5.74848 17.5 7.25621V10.1468H6.5218L5.68094 7.85168ZM31.1719 7.25614V10.1468H19.8438V7.25614C19.8438 7.04075 20.019 6.86551 20.2344 6.86551H30.7812C30.9966 6.86551 31.1719 7.04075 31.1719 7.25614ZM33.3594 37.6468H4.29688C3.21992 37.6468 2.34375 36.7706 2.34375 35.6936V14.4436C2.34375 13.3667 3.21992 12.4905 4.29688 12.4905H33.3594C34.4363 12.4905 35.3125 13.3667 35.3125 14.4436V19.1311H31.0156C27.7848 19.1311 25.1562 21.7597 25.1562 24.9905C25.1562 28.2214 27.7848 30.8499 31.0156 30.8499H35.3125V35.6936C35.3125 36.7706 34.4363 37.6468 33.3594 37.6468Z" fill="#2D3C58"></path><path d="M31.0156 26.1625C31.6628 26.1625 32.1875 25.6378 32.1875 24.9906C32.1875 24.3434 31.6628 23.8187 31.0156 23.8187C30.3684 23.8187 29.8438 24.3434 29.8438 24.9906C29.8438 25.6378 30.3684 26.1625 31.0156 26.1625Z" fill="#2D3C58"></path></g><defs><clipPath id="clip0_332_2437"><rect width="40" height="40" fill="white"></rect></clipPath></defs></svg>